<svg width="41" height="43" viewBox="0 0 41 43" fill="none" xmlns="http://www.w3.org/2000/svg">
<path d="M19.2716 18.021C18.7194 18.2648 18.2962 18.8708 18.2962 19.5626C18.2962 20.7447 18.0052 21.9963 17.5365 23.0326C17.0678 24.069 16.4091 24.8761 15.7977 25.2292C15.4232 25.4453 14.635 25.7177 13.9166 26.2432C13.8053 26.3246 13.6957 26.4162 13.5898 26.5151C13.264 25.9192 12.6301 25.5123 11.9083 25.5123H9.88256C9.61661 24.7712 8.90266 24.2351 8.07513 24.2351H2.9646C1.91419 24.2351 1.04987 25.0981 1.04987 26.1484V40.1969C1.04987 41.2472 1.91419 42.1165 2.9646 42.1165H8.07513C8.90129 42.1165 9.61431 41.5784 9.88133 40.838H11.9083C12.669 40.838 13.3307 40.3854 13.6384 39.7366C14.0523 40.0266 14.554 40.1969 15.0941 40.1969H26.5987C27.3103 40.1969 27.9123 39.8536 28.3052 39.3961C28.698 38.9386 28.9309 38.3866 29.111 37.8444C29.5898 36.4024 30.2318 34.4076 30.7563 32.6407C31.0185 31.7572 31.2517 30.9281 31.4211 30.2546C31.5906 29.5811 31.7043 29.1223 31.7043 28.7042C31.7043 27.2985 30.5545 26.1484 29.1534 26.1484H23.4017V21.4822C23.4017 19.6356 22.2535 18.409 21.0541 18.0072C20.7543 17.9068 20.4463 17.8494 20.1448 17.8476C19.8432 17.8457 19.5477 17.899 19.2716 18.021ZM20.6437 19.2146C21.3603 19.4547 22.1244 20.1486 22.1244 21.4822V26.7895C22.1251 27.1427 22.4123 27.4283 22.7655 27.4269H29.1534C29.8663 27.4269 30.4307 27.9878 30.4307 28.7042C30.4307 28.7648 30.3433 29.3 30.1812 29.944C30.0192 30.588 29.7893 31.3995 29.5301 32.2727C29.0117 34.0191 28.3749 36.0133 27.8997 37.4441C27.7455 37.9085 27.5518 38.3182 27.3384 38.5666C27.125 38.8151 26.9443 38.9246 26.5987 38.9246H15.0941C14.3812 38.9246 13.8218 38.367 13.8218 37.6474V28.9249C13.8218 28.055 14.1594 27.6495 14.67 27.276C15.1806 26.9025 15.8638 26.6687 16.4388 26.3368C17.4053 25.7788 18.1572 24.7639 18.7015 23.5603C19.2459 22.3566 19.5735 20.9496 19.5735 19.5626C19.5735 19.2965 19.6244 19.2643 19.7905 19.1909C19.8735 19.1542 19.9971 19.1297 20.1448 19.1298C20.2925 19.1299 20.4646 19.1546 20.6437 19.2146ZM2.9646 25.5123H8.07513C8.43998 25.5123 8.71627 25.7836 8.71627 26.1484V40.1969C8.71627 40.5617 8.43998 40.838 8.07513 40.838H2.9646C2.59974 40.838 2.32843 40.5617 2.32843 40.1969V26.1484C2.32843 25.7836 2.59974 25.5123 2.9646 25.5123ZM9.9936 26.7895H11.9083C12.2732 26.7895 12.5445 27.0608 12.5445 27.4257V28.9249V38.9246C12.5445 39.2895 12.2732 39.5607 11.9083 39.5607H9.9936V26.7895ZM4.24316 38.2835C3.89045 38.2835 3.6045 38.5694 3.6045 38.9221C3.6045 39.2748 3.89045 39.5607 4.24316 39.5607C4.59589 39.5607 4.88181 39.2748 4.88181 38.9221C4.88181 38.5694 4.59589 38.2835 4.24316 38.2835Z" fill="#FFD117"/>
<path d="M19.8827 0.305593L18.4757 2.58817L15.825 3.19311C15.3507 3.30147 15.1652 3.86556 15.4857 4.22464L17.267 6.24029L17.035 8.89332C16.993 9.36722 17.4803 9.71505 17.9281 9.5307L20.4366 8.49293L22.9451 9.5307C23.3932 9.71634 23.882 9.36803 23.8395 8.89332L23.6075 6.24029L25.3887 4.22464C25.7092 3.86556 25.5237 3.30147 25.0494 3.19311L22.395 2.58817L20.988 0.305593C20.8714 0.116324 20.6623 0.000450047 20.4366 1.07257e-06C20.2099 -0.000406866 19.9997 0.115576 19.8827 0.305593ZM20.4365 1.856L21.432 3.47127C21.522 3.61684 21.668 3.72071 21.8373 3.75939L23.7109 4.18722L22.4536 5.61165C22.3389 5.74084 22.2827 5.91008 22.2976 6.08064L22.4634 7.96033L20.6859 7.22691C20.5264 7.1614 20.3466 7.1614 20.187 7.22691L18.4107 7.96033L18.5765 6.08064C18.591 5.91007 18.5353 5.74085 18.4206 5.61165L17.1595 4.18722L19.0368 3.75939C19.206 3.72072 19.3522 3.61683 19.4422 3.47127L20.4365 1.856ZM10.2928 3.49621L9.33236 5.01294L7.52241 5.41582C7.04365 5.52278 6.85523 6.07643 7.1769 6.43113L8.39434 7.77074L8.23599 9.53693C8.1952 10.0045 8.68982 10.3461 9.14282 10.1631L10.8542 9.47582L12.5656 10.1631C13.0183 10.3448 13.5116 10.0037 13.4712 9.53693L13.3129 7.77074L14.5303 6.43113C14.8521 6.07566 14.6621 5.52143 14.1823 5.41582L12.3749 5.01294L11.4144 3.49621C11.2958 3.3094 11.0833 3.19539 10.8542 3.19561C10.6249 3.19498 10.4117 3.30904 10.2928 3.49621ZM29.4588 3.49621L28.4984 5.01294L26.6884 5.41582C26.2097 5.52278 26.0213 6.07643 26.3429 6.43113L27.5603 7.77074L27.402 9.53693C27.3612 10.0045 27.8558 10.3461 28.3089 10.1631L30.0202 9.47582L31.7304 10.1631C32.1834 10.3461 32.6781 10.0045 32.6372 9.53693L32.4789 7.77074L33.6963 6.43113C34.0181 6.07566 33.8281 5.52143 33.3483 5.41582L31.5409 5.01294L30.5804 3.49621C30.4619 3.3094 30.2492 3.19539 30.0202 3.19561C29.7906 3.19498 29.5777 3.30904 29.4588 3.49621ZM10.8542 5.02541L11.3968 5.88231C11.4885 6.02642 11.6374 6.129 11.8097 6.1667L12.8313 6.39621L12.1427 7.15457C12.0276 7.28205 11.9713 7.44849 11.9868 7.61608L12.0766 8.61143L11.1086 8.22352C10.9459 8.15798 10.7624 8.15798 10.5997 8.22352L9.6317 8.61143L9.72029 7.61608C9.73477 7.44815 9.6778 7.28168 9.56194 7.15457L8.87588 6.39621L9.89874 6.1667C10.0706 6.12871 10.219 6.02617 10.3104 5.88231L10.8542 5.02541ZM30.0202 5.02541L30.5628 5.88231C30.6545 6.02642 30.8035 6.129 30.9757 6.1667L31.9973 6.39621L31.3087 7.15457C31.1936 7.28205 31.1373 7.44848 31.1528 7.61608L31.2414 8.61143L30.2734 8.22352C30.1109 8.15832 29.9281 8.15832 29.7657 8.22352L28.7977 8.61143L28.8863 7.61608C28.9008 7.44815 28.8439 7.28168 28.728 7.15457L28.042 6.39621L29.0636 6.1667C29.2359 6.12899 29.3848 6.02641 29.4764 5.88231L30.0202 5.02541ZM2.62893 6.04571L1.89298 7.18575L0.50963 7.4876C0.0265005 7.59381 -0.1633 8.14281 0.161603 8.49418L1.09091 9.50076L0.968767 10.8267C0.926283 11.2904 1.42537 11.6302 1.8831 11.4491L3.19285 10.9314L4.50135 11.4491C4.95908 11.6302 5.45827 11.2904 5.41569 10.8267L5.29475 9.50076L6.22406 8.49418C6.54898 8.14281 6.35923 7.59382 5.87603 7.4876L4.49268 7.18575L3.75673 6.04571C3.63724 5.86088 3.42354 5.74785 3.19285 5.74761C2.96209 5.74785 2.74835 5.86086 2.62893 6.04571ZM37.1165 6.04571L36.3818 7.18575L34.9972 7.4876C34.5141 7.59381 34.3243 8.14281 34.6492 8.49418L35.5798 9.50076L35.4576 10.8267C35.4151 11.2904 35.9142 11.6302 36.3719 11.4491L37.6805 10.9314L38.9902 11.4491C39.4479 11.6302 39.9471 11.2904 39.9045 10.8267L39.7824 9.50076L40.7129 8.49418C41.0379 8.14281 40.8481 7.59382 40.3649 7.4876L38.9803 7.18575L38.2456 6.04571C38.1259 5.86052 37.9116 5.74744 37.6804 5.74761C37.4496 5.74785 37.236 5.86089 37.1165 6.04571ZM3.19276 7.56244L3.5046 8.04764C3.59681 8.19023 3.74661 8.29189 3.91997 8.32954L4.51122 8.45926L4.11455 8.88958C3.99772 9.01536 3.94027 9.17998 3.955 9.34609L4.00617 9.91113L3.4486 9.69036C3.28446 9.6253 3.09896 9.6253 2.93469 9.69036L2.37835 9.91113L2.42953 9.34609C2.44401 9.18014 2.38752 9.01555 2.27118 8.88958L1.87326 8.45926L2.46327 8.32954C2.63707 8.29217 2.7874 8.1905 2.8799 8.04764L3.19276 7.56244ZM37.6803 7.56244L37.9934 8.04764C38.0854 8.18999 38.2346 8.2916 38.4076 8.32954L39.0001 8.45926L38.6022 8.88958C38.4858 9.01556 38.4288 9.18015 38.4438 9.34609L38.495 9.91113L37.9362 9.69036C37.7723 9.62564 37.5874 9.62564 37.4235 9.69036L36.8672 9.91113L36.9183 9.34609C36.9328 9.17997 36.8754 9.01536 36.7588 8.88958L36.3621 8.45926L36.9521 8.32954C37.1259 8.29217 37.2762 8.1905 37.3687 8.04764L37.6803 7.56244ZM20.4365 12.1263C20.0858 12.1277 19.8018 12.4117 19.8004 12.7625V14.6808C19.8011 15.0321 20.0853 15.3168 20.4365 15.3182C20.7898 15.3196 21.077 15.034 21.0777 14.6808V12.7625C21.0763 12.4098 20.7893 12.125 20.4365 12.1263ZM15.8824 13.3188C15.7124 13.3188 15.5494 13.3866 15.4296 13.5071C15.1819 13.7562 15.1819 14.1586 15.4296 14.4077L16.788 15.766C17.0371 16.0137 17.4395 16.0137 17.6886 15.766C17.9396 15.5163 17.9396 15.1101 17.6886 14.8605L16.3352 13.5071C16.2152 13.3866 16.0523 13.3188 15.8824 13.3188ZM24.9571 13.3201C24.799 13.3283 24.6496 13.395 24.5379 13.5071L23.1858 14.8605C22.9348 15.1101 22.9348 15.5164 23.1858 15.766C23.4353 16.0162 23.8406 16.0162 24.0901 15.766L25.4435 14.4077C25.6912 14.1586 25.6912 13.7562 25.4435 13.5071C25.3154 13.3784 25.1384 13.3104 24.9571 13.3201Z" fill="white"/>
</svg>
