<svg width="20" height="11" viewBox="0 0 20 11" fill="none" xmlns="http://www.w3.org/2000/svg">
<path d="M16.2411 8.0502L16.242 10.4471C16.242 10.7678 16.6541 10.9216 16.8695 10.6725L17.5419 9.8941L18.1998 10.6554C18.4021 10.9224 18.8427 10.7849 18.8427 10.4471L18.8425 8.0502C19.5602 7.61012 20 6.84041 20 6.00695C20 4.67694 18.8992 3.59856 17.5416 3.59856C16.1855 3.59856 15.0833 4.6775 15.0833 6.00695C15.0833 6.84404 15.5262 7.6118 16.2411 8.0502ZM19.2865 6.00695C19.2865 7.04731 18.381 7.77508 17.4252 7.71273C16.5585 7.63557 15.7968 7.01907 15.7968 6.00695C15.7968 5.06166 16.5776 4.29754 17.5416 4.29754C18.5051 4.29754 19.2865 5.06305 19.2865 6.00695ZM0.391617 2.88085L7.16424 0.0480382C7.32406 -0.0185043 7.49672 -0.0134717 7.64512 0.0480382L14.418 2.88085C14.9195 3.08998 14.9092 3.78281 14.418 3.98803L12.4468 4.81226L12.4483 8.69857C12.4483 8.96781 12.2679 9.19568 12.0196 9.27341L7.62857 10.9588C7.47874 11.0158 7.32006 11.0116 7.18136 10.9588L2.75323 9.25915C2.51093 9.1666 2.36253 8.93902 2.36253 8.69857L2.36139 4.81198L1.85368 4.59977V9.96148C1.85368 10.7547 0.622784 10.7547 0.622784 9.96148V4.08477C-0.000510365 3.82391 -0.287614 3.16463 0.391617 2.88085ZM11.2171 5.32671L7.9034 6.71124C7.68593 6.80211 7.42594 6.92289 7.19249 6.83146C6.10858 6.4775 4.68619 5.7844 3.59228 5.32699V8.28869L7.40482 9.75179L11.2171 8.28869V5.32671ZM7.40454 5.61301L12.6135 3.43444L7.40454 1.25587L2.19615 3.43444C3.9319 4.16081 5.66822 4.88663 7.40454 5.61301ZM14.6027 7.20332H13.0727L13.0724 5.99745H14.3587V6.00695C14.3587 6.42438 14.444 6.83007 14.6027 7.20332Z" fill="white"/>
</svg>
