<svg width="32" height="32" viewBox="0 0 32 32" fill="none" xmlns="http://www.w3.org/2000/svg">
<path d="M23.6492 19.4125L23.6493 19.4125C23.8249 19.413 23.9969 19.4621 24.1463 19.5544C24.2956 19.6467 24.4165 19.7786 24.4954 19.9355C24.5743 20.0923 24.6083 20.268 24.5934 20.4429C24.5786 20.6179 24.5155 20.7853 24.4113 20.9266L24.4112 20.9265L24.407 20.9326C22.5626 23.5948 19.4884 25.35 16.025 25.35C12.5615 25.35 9.48737 23.5948 7.643 20.9326L7.64303 20.9326L7.64055 20.9292C7.53955 20.7885 7.47889 20.623 7.46512 20.4505C7.45135 20.2779 7.48499 20.1048 7.56242 19.95C7.63984 19.7951 7.7581 19.6644 7.90442 19.5718C8.05075 19.4793 8.21957 19.4285 8.39265 19.4249C8.55279 19.4217 8.71113 19.459 8.85297 19.5334C8.99485 19.6078 9.11561 19.7169 9.20403 19.8505L9.20398 19.8505L9.207 19.8548C10.7112 22.0261 13.1934 23.45 16.025 23.45C18.8566 23.45 21.3388 22.0261 22.843 19.8548L22.8431 19.8549L22.8476 19.8479C22.934 19.7139 23.0527 19.6038 23.1928 19.5277C23.3328 19.4516 23.4898 19.412 23.6492 19.4125ZM0.25 16C0.25 7.31577 7.31574 0.25 16 0.25C24.6843 0.25 31.75 7.31577 31.75 16C31.75 24.6842 24.6843 31.75 16 31.75C7.31574 31.75 0.25 24.6842 0.25 16ZM29.85 16C29.85 8.33667 23.6633 2.15 16 2.15C8.33666 2.15 2.15 8.33667 2.15 16C2.15 23.6634 8.33666 29.85 16 29.85C23.6633 29.85 29.85 23.6634 29.85 16Z" fill="#FFD117" stroke="#FFD117" stroke-width="0.5"/>
<path d="M10.8 9C9.25356 9 8 10.2536 8 11.8C8 13.3464 9.25356 14.6 10.8 14.6C12.3464 14.6 13.6 13.3464 13.6 11.8C13.6 10.2536 12.3464 9 10.8 9ZM22.4 9C20.8536 9 19.6 10.2536 19.6 11.8C19.6 13.3464 20.8536 14.6 22.4 14.6C23.9464 14.6 25.2 13.3464 25.2 11.8C25.2 10.2536 23.9464 9 22.4 9Z" fill="white"/>
</svg>
