<svg width="15" height="16" viewBox="0 0 15 16" fill="none" xmlns="http://www.w3.org/2000/svg">
<path d="M14.5722 11.3062L11.2909 9.80614C11.1507 9.74242 10.995 9.72899 10.847 9.76788C10.6991 9.80677 10.567 9.89587 10.4706 10.0218L9.01744 11.9156C6.73686 10.7686 4.90151 8.81089 3.82624 6.37827L5.60166 4.82824C5.71993 4.72564 5.80363 4.58473 5.84011 4.42684C5.87659 4.26896 5.86384 4.10269 5.80381 3.95322L4.39754 0.453162C4.33165 0.292037 4.21512 0.160484 4.06804 0.0811864C3.92097 0.00188914 3.75256 -0.0201818 3.59186 0.0187795L0.544931 0.768793C0.389998 0.806955 0.251766 0.900007 0.152796 1.03276C0.0538267 1.16552 -3.56904e-05 1.33013 1.77431e-08 1.49974C1.77431e-08 9.51551 6.09093 16 13.594 16C13.753 16.0001 13.9074 15.9427 14.032 15.8371C14.1565 15.7315 14.2438 15.5841 14.2795 15.4187L14.9827 12.1687C15.019 11.9964 14.9978 11.8161 14.9229 11.6587C14.848 11.5012 14.724 11.3766 14.5722 11.3062Z" fill="#FFD117"/>
</svg>
