<svg width="22" height="19" viewBox="0 0 22 19" fill="none" xmlns="http://www.w3.org/2000/svg">
<path d="M14.8548 11.5003C14.8547 10.3502 14.5851 9.216 14.0674 8.18784C13.5497 7.15967 12.7983 6.26589 11.8727 5.57756C10.9472 4.88923 9.87315 4.42531 8.73593 4.2227C7.59871 4.02008 6.42969 4.08435 5.32179 4.41039C4.2139 4.73644 3.19768 5.31527 2.35392 6.10087C1.51016 6.88647 0.862117 7.85719 0.461311 8.93585C0.0605061 10.0145 -0.0820124 11.1714 0.0450848 12.3145C0.172182 13.4576 0.565391 14.5554 1.19345 15.5207L1.35478 15.7678L0.571375 18.9998L4.02091 18.0766L4.24962 18.1846C5.24204 18.6547 6.32768 18.8975 7.42672 18.895C9.3961 18.8928 11.2842 18.113 12.6767 16.7267C14.0693 15.3404 14.8526 13.4608 14.8548 11.5003ZM11.3223 13.9011H3.53112V12.5323H11.3223V13.9011ZM11.3223 10.4683H3.53112V9.09949H11.3223V10.4683ZM20.4833 14.5096L20.3223 14.7565L21.3491 19L16.8249 17.7894L16.5962 17.8975C15.3343 18.4953 13.9539 18.8037 12.5564 18.8002C12.4702 18.8002 12.3841 18.7984 12.298 18.7961C13.9931 17.6742 15.2452 16.0019 15.8409 14.0642C16.4367 12.1265 16.3394 10.0431 15.5655 8.16883C14.7916 6.29455 13.389 4.74526 11.5965 3.78481C9.80407 2.82435 7.73261 2.51212 5.73489 2.90127C7.35982 1.21078 9.55963 0.184312 11.9043 0.0225161C14.249 -0.13928 16.5701 0.575224 18.4137 2.02637C20.2574 3.47751 21.4912 5.56097 21.8739 7.86949C22.2567 10.178 21.7608 12.5457 20.4833 14.5096Z" fill="#FFD117"/>
</svg>
