<svg width="33" height="30" viewBox="0 0 33 30" fill="none" xmlns="http://www.w3.org/2000/svg">
<path d="M9.59668 8.63636V3.54545C9.59668 2.87036 9.82463 2.22291 10.2304 1.74555C10.6362 1.26818 11.1865 1 11.7603 1H29.0694C29.6432 1 30.1936 1.26818 30.5993 1.74555C31.0051 2.22291 31.233 2.87036 31.233 3.54545V26.4545C31.233 27.1296 31.0051 27.7771 30.5993 28.2545C30.1936 28.7318 29.6432 29 29.0694 29H11.7603C11.1865 29 10.6362 28.7318 10.2304 28.2545C9.82463 27.7771 9.59668 27.1296 9.59668 26.4545V21.3636" stroke="white" stroke-width="2" stroke-linecap="round" stroke-linejoin="round"/>
<path fill-rule="evenodd" clip-rule="evenodd" d="M23.0588 14.2976L16.6536 8V13.0381H11.5294C5.17158 13.0381 0 18.1227 0 24.3737V29.4118H2.56209V24.3737C2.56209 19.5132 6.58586 15.5571 11.5294 15.5571H16.6536V20.5952L23.0588 14.2976Z" fill="#FFD117"/>
</svg>
