<svg width="15" height="15" viewBox="0 0 15 15" fill="none" xmlns="http://www.w3.org/2000/svg">
<path fill-rule="evenodd" clip-rule="evenodd" d="M3.40316 0.765947L5.63949 3.61026C5.8749 3.95854 5.8749 4.42292 5.58064 4.71315L4.05052 6.22238C3.40316 6.91894 8.17008 11.6208 8.87629 10.9822L10.4064 9.47302C10.7007 9.18278 11.1715 9.18278 11.5246 9.41497L14.4671 11.6208C14.7614 11.911 14.8202 12.3173 14.526 12.6076L12.8781 14.2329L12.7604 14.407C10.7007 16.4387 5.52179 12.7237 3.87397 11.1564C2.28499 9.53107 -1.42261 4.42292 0.57832 2.44931L0.754873 2.27517L2.4027 0.649853C2.69695 0.359617 3.10891 0.417664 3.40316 0.765947ZM8.28778 2.85564C7.75812 2.7976 7.87582 2.04298 8.34663 2.10103C10.7007 2.44931 12.525 4.19073 12.8193 6.51261C12.937 6.97699 12.1131 7.09309 12.0542 6.57066C11.76 4.65511 10.2299 3.14588 8.28778 2.85564ZM8.17008 0.765947C7.64042 0.7079 7.75812 -0.10476 8.22893 0.0113343C11.76 0.475711 14.526 3.14588 14.9968 6.57066C15.0556 7.09309 14.2906 7.20918 14.2317 6.68676C13.7609 3.61026 11.2892 1.17228 8.17008 0.765947Z" fill="#FFD117"/>
</svg>
