<svg width="20" height="15" viewBox="0 0 20 15" fill="none" xmlns="http://www.w3.org/2000/svg">
<path d="M6.4288 9.1618C6.4288 6.0398 9.6794 3.499 13.6752 3.499C14.7646 3.499 15.7978 3.6884 16.726 4.0278C15.3874 1.6576 12.3064 0 8.7184 0C3.903 0 0 2.9852 0 6.6678C0 8.5298 0.9986 10.2118 2.6064 11.4212L1.9698 14.5152L4.8388 12.6382C6.008 13.0844 7.3242 13.3356 8.7184 13.3356C8.74 13.3356 8.7616 13.3338 8.783 13.3338C7.3374 12.2988 6.4288 10.812 6.4288 9.1618Z" fill="#FFD117"/>
<path d="M19.9997 9.16195C19.9997 6.60435 17.2095 4.52295 13.7781 4.52295C10.3467 4.52295 7.55469 6.60435 7.55469 9.16195C7.55469 11.7197 10.3467 13.8009 13.7781 13.8009C14.5601 13.8009 15.3261 13.6903 16.0565 13.4747L18.0459 14.6747L17.7515 12.7191C19.1821 11.8303 19.9997 10.5439 19.9997 9.16195Z" fill="#FFD117"/>
<circle cx="11.421" cy="9.03567" r="0.894737" fill="#000B6E"/>
<circle cx="14.2631" cy="9.03567" r="0.894737" fill="#000B6E"/>
<circle cx="17.1047" cy="9.03585" r="0.894737" fill="#000B6E"/>
</svg>
