<svg width="18" height="19" viewBox="0 0 18 19" fill="none" xmlns="http://www.w3.org/2000/svg">
<path fill-rule="evenodd" clip-rule="evenodd" d="M1.43811 13.9184C0.528632 12.5086 0 10.8281 0 9.025C0 4.04415 4.03295 0 9 0C13.9671 0 18 4.04415 18 9.025C18 14.0058 13.9671 18.05 9 18.05C7.31653 18.05 5.74105 17.5855 4.39295 16.778L0 18.2457L1.43811 13.9184Z" fill="white"/>
<path fill-rule="evenodd" clip-rule="evenodd" d="M3.12106 13.2125C2.2817 12.0307 1.78812 10.5858 1.78812 9.0259C1.78812 5.03495 5.01959 1.79449 8.99949 1.79449C12.9794 1.79449 16.2109 5.03495 16.2109 9.0259C16.2109 13.0168 12.9794 16.2563 8.99949 16.2563C7.49317 16.2563 6.09485 15.7927 4.93717 14.9995L2.2258 15.9058L3.12106 13.2125Z" fill="#1FC600"/>
<path fill-rule="evenodd" clip-rule="evenodd" d="M6.83403 10.9013C5.76919 9.59602 5.05866 7.99812 4.83603 6.26532C4.77634 5.78272 4.93645 5.29822 5.27276 4.94767C5.60908 4.59712 6.08561 4.41757 6.56876 4.45842L6.61519 4.46317C6.61519 4.46317 7.14666 4.60567 7.4375 4.68452C7.55308 4.71587 7.64498 4.80232 7.68382 4.91537C7.81455 5.30487 8.1234 6.21972 8.26929 6.65007C8.31666 6.78972 8.27308 6.94457 8.16129 7.03957C7.94055 7.22577 7.57582 7.53357 7.34845 7.72642C7.22624 7.82997 7.1874 8.00192 7.25371 8.14727C7.51803 8.72487 7.85529 9.26447 8.25508 9.75277C8.66624 10.2297 9.13898 10.6543 9.66192 11.0134C9.79455 11.1037 9.96982 11.0942 10.092 10.9906C10.3203 10.7987 10.6851 10.4909 10.9049 10.3047C11.0176 10.2097 11.1768 10.1936 11.3066 10.2639C11.7044 10.4805 12.5514 10.9403 12.9114 11.136C13.0166 11.193 13.0867 11.2994 13.0971 11.4181C13.1246 11.7193 13.1757 12.2684 13.1757 12.2684L13.1719 12.3149C13.1302 12.7994 12.8735 13.2402 12.4718 13.5129C12.0701 13.7865 11.5671 13.8625 11.1029 13.7219C9.42413 13.2041 7.96424 12.2199 6.85961 10.9317L6.83403 10.9013Z" fill="white"/>
</svg>
