<svg width="62" height="22" viewBox="0 0 62 22" fill="none" xmlns="http://www.w3.org/2000/svg">
<rect x="0.999908" y="1" width="59.3796" height="19.0918" rx="9.5459" fill="#404040" stroke="white" stroke-width="2"/>
<path d="M17.3118 14.6126C16.6005 14.6126 15.9442 14.4476 15.3428 14.1176C14.7488 13.7803 14.2758 13.3146 13.9238 12.7206C13.5792 12.1193 13.4068 11.4446 13.4068 10.6966C13.4068 9.94858 13.5792 9.27758 13.9238 8.68358C14.2758 8.08958 14.7488 7.62758 15.3428 7.29758C15.9442 6.96025 16.6005 6.79158 17.3118 6.79158C18.0305 6.79158 18.6868 6.96025 19.2808 7.29758C19.8822 7.62758 20.3552 8.08958 20.6998 8.68358C21.0445 9.27758 21.2168 9.94858 21.2168 10.6966C21.2168 11.4446 21.0445 12.1193 20.6998 12.7206C20.3552 13.3146 19.8822 13.7803 19.2808 14.1176C18.6868 14.4476 18.0305 14.6126 17.3118 14.6126ZM17.3118 13.5236C17.8178 13.5236 18.2688 13.4099 18.6648 13.1826C19.0608 12.9479 19.3688 12.6179 19.5888 12.1926C19.8162 11.7599 19.9298 11.2613 19.9298 10.6966C19.9298 10.1319 19.8162 9.63692 19.5888 9.21158C19.3688 8.78625 19.0608 8.45992 18.6648 8.23258C18.2688 8.00525 17.8178 7.89158 17.3118 7.89158C16.8058 7.89158 16.3548 8.00525 15.9588 8.23258C15.5628 8.45992 15.2512 8.78625 15.0238 9.21158C14.8038 9.63692 14.6938 10.1319 14.6938 10.6966C14.6938 11.2613 14.8038 11.7599 15.0238 12.1926C15.2512 12.6179 15.5628 12.9479 15.9588 13.1826C16.3548 13.4099 16.8058 13.5236 17.3118 13.5236ZM24.9918 9.49758H23.8698V14.5356H22.6048V9.49758H21.8898V8.47458H22.6048V8.04558C22.6048 7.34892 22.7881 6.84292 23.1548 6.52758C23.5288 6.20492 24.1118 6.04358 24.9038 6.04358V7.08858C24.5225 7.08858 24.2548 7.16192 24.1008 7.30858C23.9468 7.44792 23.8698 7.69358 23.8698 8.04558V8.47458H24.9918V9.49758ZM28.6441 9.49758H27.5221V14.5356H26.2571V9.49758H25.5421V8.47458H26.2571V8.04558C26.2571 7.34892 26.4405 6.84292 26.8071 6.52758C27.1811 6.20492 27.7641 6.04358 28.5561 6.04358V7.08858C28.1748 7.08858 27.9071 7.16192 27.7531 7.30858C27.5991 7.44792 27.5221 7.69358 27.5221 8.04558V8.47458H28.6441V9.49758ZM31.0095 6.39558V14.5356H29.7555V6.39558H31.0095ZM33.2939 7.67158C33.0665 7.67158 32.8759 7.59458 32.7219 7.44058C32.5679 7.28658 32.4909 7.09592 32.4909 6.86858C32.4909 6.64125 32.5679 6.45058 32.7219 6.29658C32.8759 6.14258 33.0665 6.06558 33.2939 6.06558C33.5139 6.06558 33.7009 6.14258 33.8549 6.29658C34.0089 6.45058 34.0859 6.64125 34.0859 6.86858C34.0859 7.09592 34.0089 7.28658 33.8549 7.44058C33.7009 7.59458 33.5139 7.67158 33.2939 7.67158ZM33.9099 8.47458V14.5356H32.6559V8.47458H33.9099ZM38.6143 8.37558C39.0909 8.37558 39.5163 8.47458 39.8903 8.67258C40.2716 8.87058 40.5686 9.16392 40.7813 9.55258C40.9939 9.94125 41.1003 10.4106 41.1003 10.9606V14.5356H39.8573V11.1476C39.8573 10.6049 39.7216 10.1906 39.4503 9.90458C39.1789 9.61125 38.8086 9.46458 38.3393 9.46458C37.8699 9.46458 37.4959 9.61125 37.2173 9.90458C36.9459 10.1906 36.8103 10.6049 36.8103 11.1476V14.5356H35.5563V8.47458H36.8103V9.16758C37.0156 8.91825 37.2759 8.72392 37.5913 8.58458C37.9139 8.44525 38.2549 8.37558 38.6143 8.37558ZM48.2548 11.3566C48.2548 11.5839 48.2402 11.7893 48.2108 11.9726H43.5798C43.6165 12.4566 43.7962 12.8453 44.1188 13.1386C44.4415 13.4319 44.8375 13.5786 45.3068 13.5786C45.9815 13.5786 46.4582 13.2963 46.7368 12.7316H48.0898C47.9065 13.2889 47.5728 13.7473 47.0888 14.1066C46.6122 14.4586 46.0182 14.6346 45.3068 14.6346C44.7275 14.6346 44.2068 14.5063 43.7448 14.2496C43.2902 13.9856 42.9308 13.6189 42.6668 13.1496C42.4102 12.6729 42.2818 12.1229 42.2818 11.4996C42.2818 10.8762 42.4065 10.3299 42.6558 9.86058C42.9125 9.38392 43.2682 9.01725 43.7228 8.76058C44.1848 8.50392 44.7128 8.37558 45.3068 8.37558C45.8788 8.37558 46.3885 8.50025 46.8358 8.74958C47.2832 8.99892 47.6315 9.35092 47.8808 9.80558C48.1302 10.2529 48.2548 10.7699 48.2548 11.3566ZM46.9458 10.9606C46.9385 10.4986 46.7735 10.1282 46.4508 9.84958C46.1282 9.57092 45.7285 9.43158 45.2518 9.43158C44.8192 9.43158 44.4488 9.57092 44.1408 9.84958C43.8328 10.1209 43.6495 10.4912 43.5908 10.9606H46.9458Z" fill="white"/>
</svg>
