<svg width="62" height="22" viewBox="0 0 62 22" fill="none" xmlns="http://www.w3.org/2000/svg">
<rect x="0.999908" y="1" width="59.3796" height="19.0918" rx="9.5459" fill="#39A151" stroke="white" stroke-width="2"/>
<path d="M17.3118 14.6126C16.6005 14.6126 15.9442 14.4476 15.3428 14.1176C14.7488 13.7803 14.2758 13.3146 13.9238 12.7206C13.5792 12.1193 13.4068 11.4446 13.4068 10.6966C13.4068 9.94858 13.5792 9.27758 13.9238 8.68358C14.2758 8.08958 14.7488 7.62758 15.3428 7.29758C15.9442 6.96025 16.6005 6.79158 17.3118 6.79158C18.0305 6.79158 18.6868 6.96025 19.2808 7.29758C19.8822 7.62758 20.3552 8.08958 20.6998 8.68358C21.0445 9.27758 21.2168 9.94858 21.2168 10.6966C21.2168 11.4446 21.0445 12.1193 20.6998 12.7206C20.3552 13.3146 19.8822 13.7803 19.2808 14.1176C18.6868 14.4476 18.0305 14.6126 17.3118 14.6126ZM17.3118 13.5236C17.8178 13.5236 18.2688 13.4099 18.6648 13.1826C19.0608 12.9479 19.3688 12.6179 19.5888 12.1926C19.8162 11.7599 19.9298 11.2613 19.9298 10.6966C19.9298 10.1319 19.8162 9.63692 19.5888 9.21158C19.3688 8.78625 19.0608 8.45992 18.6648 8.23258C18.2688 8.00525 17.8178 7.89158 17.3118 7.89158C16.8058 7.89158 16.3548 8.00525 15.9588 8.23258C15.5628 8.45992 15.2512 8.78625 15.0238 9.21158C14.8038 9.63692 14.6938 10.1319 14.6938 10.6966C14.6938 11.2613 14.8038 11.7599 15.0238 12.1926C15.2512 12.6179 15.5628 12.9479 15.9588 13.1826C16.3548 13.4099 16.8058 13.5236 17.3118 13.5236ZM25.5088 8.37558C25.9855 8.37558 26.4108 8.47458 26.7848 8.67258C27.1661 8.87058 27.4631 9.16392 27.6758 9.55258C27.8885 9.94125 27.9948 10.4106 27.9948 10.9606V14.5356H26.7518V11.1476C26.7518 10.6049 26.6161 10.1906 26.3448 9.90458C26.0735 9.61125 25.7031 9.46458 25.2338 9.46458C24.7645 9.46458 24.3905 9.61125 24.1118 9.90458C23.8405 10.1906 23.7048 10.6049 23.7048 11.1476V14.5356H22.4508V8.47458H23.7048V9.16758C23.9101 8.91825 24.1705 8.72392 24.4858 8.58458C24.8085 8.44525 25.1495 8.37558 25.5088 8.37558ZM30.8484 6.39558V14.5356H29.5944V6.39558H30.8484ZM33.1328 7.67158C32.9054 7.67158 32.7148 7.59458 32.5608 7.44058C32.4068 7.28658 32.3298 7.09592 32.3298 6.86858C32.3298 6.64125 32.4068 6.45058 32.5608 6.29658C32.7148 6.14258 32.9054 6.06558 33.1328 6.06558C33.3528 6.06558 33.5398 6.14258 33.6938 6.29658C33.8478 6.45058 33.9248 6.64125 33.9248 6.86858C33.9248 7.09592 33.8478 7.28658 33.6938 7.44058C33.5398 7.59458 33.3528 7.67158 33.1328 7.67158ZM33.7488 8.47458V14.5356H32.4948V8.47458H33.7488ZM38.4531 8.37558C38.9298 8.37558 39.3551 8.47458 39.7291 8.67258C40.1105 8.87058 40.4075 9.16392 40.6201 9.55258C40.8328 9.94125 40.9391 10.4106 40.9391 10.9606V14.5356H39.6961V11.1476C39.6961 10.6049 39.5605 10.1906 39.2891 9.90458C39.0178 9.61125 38.6475 9.46458 38.1781 9.46458C37.7088 9.46458 37.3348 9.61125 37.0561 9.90458C36.7848 10.1906 36.6491 10.6049 36.6491 11.1476V14.5356H35.3951V8.47458H36.6491V9.16758C36.8545 8.91825 37.1148 8.72392 37.4301 8.58458C37.7528 8.44525 38.0938 8.37558 38.4531 8.37558ZM48.0937 11.3566C48.0937 11.5839 48.079 11.7893 48.0497 11.9726H43.4187C43.4554 12.4566 43.635 12.8453 43.9577 13.1386C44.2804 13.4319 44.6764 13.5786 45.1457 13.5786C45.8204 13.5786 46.297 13.2963 46.5757 12.7316H47.9287C47.7454 13.2889 47.4117 13.7473 46.9277 14.1066C46.451 14.4586 45.857 14.6346 45.1457 14.6346C44.5664 14.6346 44.0457 14.5063 43.5837 14.2496C43.129 13.9856 42.7697 13.6189 42.5057 13.1496C42.249 12.6729 42.1207 12.1229 42.1207 11.4996C42.1207 10.8762 42.2454 10.3299 42.4947 9.86058C42.7514 9.38392 43.107 9.01725 43.5617 8.76058C44.0237 8.50392 44.5517 8.37558 45.1457 8.37558C45.7177 8.37558 46.2274 8.50025 46.6747 8.74958C47.122 8.99892 47.4704 9.35092 47.7197 9.80558C47.969 10.2529 48.0937 10.7699 48.0937 11.3566ZM46.7847 10.9606C46.7774 10.4986 46.6124 10.1282 46.2897 9.84958C45.967 9.57092 45.5674 9.43158 45.0907 9.43158C44.658 9.43158 44.2877 9.57092 43.9797 9.84958C43.6717 10.1209 43.4884 10.4912 43.4297 10.9606H46.7847Z" fill="white"/>
</svg>
