<svg width="14" height="17" viewBox="0 0 14 17" fill="none" xmlns="http://www.w3.org/2000/svg">
<path d="M14 3.26938V7.13248C14 10.6631 12.1633 13.9602 9.21686 15.7215L7.00131 17L4.79341 15.7255C2.11103 14.1185 0.339357 11.2449 0.0485423 8.05076C-0.0165083 7.33038 0.00262462 6.65355 0.00262462 3.26542L7.00131 0L14 3.26542V3.26938ZM6.18626 9.76857C4.66714 7.91222 4.25005 7.40163 4.20413 7.35413C3.74495 6.87916 3.03322 7.44517 3.26664 7.97951C3.32021 8.12596 3.14802 7.89243 5.68117 10.9837C5.88397 11.2331 6.24749 11.2647 6.48856 11.0549L12.0676 6.21024C12.6492 5.70361 11.9107 4.7972 11.3291 5.29988L6.18626 9.76461V9.76857Z" fill="#193067"/>
</svg>
