<svg width="12" height="13" viewBox="0 0 12 13" fill="none" xmlns="http://www.w3.org/2000/svg">
<path d="M5.10211 1.30376L5.69669 0.693726C5.94844 0.435425 6.35554 0.435425 6.60462 0.693726L11.8112 6.03286C12.0629 6.29116 12.0629 6.70884 11.8112 6.96439L6.60462 12.3063C6.35286 12.5646 5.94577 12.5646 5.69669 12.3063L5.10211 11.6962C4.84767 11.4352 4.85303 11.0093 5.11282 10.7537L8.34014 7.59915H0.642785C0.286575 7.59915 0 7.30513 0 6.93966V6.06034C0 5.69487 0.286575 5.40085 0.642785 5.40085H8.34014L5.11282 2.24628C4.85035 1.99073 4.845 1.5648 5.10211 1.30376Z" fill="#193067"/>
</svg>
