<svg width="11" height="12" viewBox="0 0 11 12" fill="none" xmlns="http://www.w3.org/2000/svg">
<path d="M10.6548 5.16915C10.4281 4.94276 10.1531 4.82963 9.82979 4.82979H6.67021V1.67021C6.67037 1.34691 6.55529 1.06996 6.325 0.839362C6.0983 0.612968 5.8233 0.499848 5.5 0.5C5.1767 0.499848 4.89975 0.612968 4.66915 0.839362C4.44276 1.06996 4.32963 1.34691 4.32979 1.67021V4.82979H1.17021C0.846911 4.82963 0.569961 4.94276 0.339362 5.16915C0.112968 5.39975 -0.000152218 5.6767 1.53724e-07 6C-0.000152218 6.3233 0.112968 6.5983 0.339362 6.825C0.569961 7.05529 0.846911 7.17037 1.17021 7.17021H4.32979V10.3298C4.32963 10.6531 4.44276 10.9281 4.66915 11.1548C4.89975 11.3851 5.1767 11.5002 5.5 11.5C5.8233 11.5002 6.0983 11.3851 6.325 11.1548C6.55529 10.9281 6.67037 10.6531 6.67021 10.3298V7.17021H9.82979C10.1531 7.17037 10.4281 7.05529 10.6548 6.825C10.8851 6.5983 11.0002 6.3233 11 6C11.0002 5.6767 10.8851 5.39975 10.6548 5.16915Z" fill="#000B6E"/>
</svg>
