<svg width="18" height="22" viewBox="0 0 18 22" fill="none" xmlns="http://www.w3.org/2000/svg">
<path d="M17.2908 16.3376L13.4331 13.8967C13.2683 13.7928 13.0741 13.7453 12.8799 13.7614C12.6857 13.7774 12.502 13.8561 12.3564 13.9856L10.1617 15.9324C7.50038 14.1124 5.55534 11.423 4.66023 8.32553L7.19648 6.85088C7.36531 6.75342 7.49778 6.60361 7.57385 6.42413C7.64992 6.24464 7.66544 6.04526 7.61806 5.85617L6.50798 1.42816C6.45542 1.22408 6.33331 1.04474 6.16269 0.921052C5.99207 0.797366 5.78364 0.737091 5.57335 0.750619L1.58384 1.02048C1.38097 1.03424 1.18876 1.11635 1.03856 1.25341C0.88837 1.39047 0.789069 1.5744 0.756869 1.77517C-0.767048 11.263 5.69029 20.1735 15.1633 21.6951C15.3641 21.7274 15.57 21.6908 15.7473 21.5911C15.9245 21.4914 16.0628 21.3345 16.1394 21.1461L17.645 17.4417C17.7236 17.2452 17.7312 17.0275 17.6665 16.8259C17.6019 16.6244 17.469 16.4517 17.2908 16.3376Z" fill="black"/>
</svg>
