<svg width="28" height="27" viewBox="0 0 28 27" fill="none" xmlns="http://www.w3.org/2000/svg">
<path d="M27.5865 15.6507C27.5787 17.2936 27.0581 18.888 26.1051 20.1876C25.1521 21.4873 23.8198 22.4198 22.314 22.8412C22.3046 23.3161 22.365 23.7897 22.4932 24.245C22.5724 24.5302 22.571 24.8335 22.489 25.1178C22.4071 25.4021 22.2482 25.6549 22.0319 25.8454C21.8156 26.0358 21.5513 26.1555 21.2715 26.1898C20.9916 26.224 20.7083 26.1714 20.4564 26.0383C19.409 25.4803 18.0365 24.5299 17.127 23.0766H16.6557C15.6871 23.075 14.7291 22.8637 13.8412 22.4557C12.9532 22.0478 12.1541 21.4519 11.4934 20.705C11.3622 20.5038 11.3043 20.2593 11.3307 20.0167C11.357 19.774 11.4657 19.5496 11.6367 19.3849C11.8077 19.2202 12.0294 19.1263 12.2609 19.1205C12.4924 19.1147 12.7181 19.1975 12.8963 19.3535C13.375 19.9007 13.9564 20.3368 14.6037 20.634C15.2509 20.9312 15.9497 21.0831 16.6557 21.0799H17.6644C17.8392 21.0799 18.0106 21.1303 18.1603 21.2256C18.3099 21.3208 18.4319 21.4574 18.5133 21.6205C18.9796 22.4801 19.643 23.2026 20.4426 23.7219C20.3767 23.1058 20.3887 22.4832 20.4784 21.8705C20.5092 21.6565 20.6043 21.4586 20.7496 21.3059C20.895 21.1531 21.083 21.0535 21.286 21.0218C22.3508 20.8608 23.3407 20.3512 24.1161 19.565C24.8915 18.7788 25.4132 17.7557 25.6075 16.64C25.8018 15.5243 25.6589 14.3725 25.199 13.347C24.7391 12.3216 23.9855 11.4743 23.0444 10.9249C22.9347 10.86 22.8382 10.773 22.7605 10.6688C22.6827 10.5646 22.6252 10.4452 22.5911 10.3176C22.5571 10.1899 22.5472 10.0564 22.5621 9.92477C22.577 9.79309 22.6163 9.66579 22.6778 9.55015C22.7394 9.4345 22.8219 9.33276 22.9207 9.25075C23.0195 9.16873 23.1327 9.10805 23.2537 9.07215C23.3748 9.03626 23.5014 9.02586 23.6262 9.04155C23.7511 9.05724 23.8718 9.09871 23.9815 9.16359C25.074 9.81058 25.9836 10.7523 26.6171 11.8923C27.2506 13.0323 27.5852 14.3294 27.5865 15.6507Z" fill="white"/>
<path d="M7.2179 15.9046C7.38189 16.9568 7.31338 18.0329 7.01731 19.0549C6.98296 19.1742 6.98355 19.3012 7.01901 19.4202C7.05447 19.5392 7.12326 19.6452 7.21702 19.7252C7.31078 19.8053 7.42546 19.856 7.5471 19.8711C7.66873 19.8862 7.79208 19.8651 7.90212 19.8104C9.21285 19.1385 11.0677 17.9035 12.0596 15.9883H13.3758C14.411 15.989 15.4362 15.7828 16.3928 15.3815C17.3494 14.9802 18.2187 14.3916 18.951 13.6494C19.6834 12.9072 20.2644 12.0258 20.661 11.0557C21.0575 10.0856 21.2618 9.04576 21.2622 7.99553C21.2622 5.87547 20.4323 3.8422 18.9549 2.34282C17.4776 0.843449 15.4737 0.000739213 13.3841 0H8.36376C6.27363 0 4.2691 0.842384 2.79116 2.34184C1.31321 3.84129 0.48291 5.87499 0.48291 7.99553C0.483255 9.9144 1.16378 11.7691 2.40025 13.2212C3.63672 14.6732 5.34666 15.6256 7.2179 15.9046ZM14.0463 6.833C14.273 6.833 14.4945 6.90118 14.6829 7.02892C14.8714 7.15666 15.0182 7.33823 15.105 7.55065C15.1917 7.76308 15.2144 7.99682 15.1702 8.22233C15.126 8.44784 15.0168 8.65498 14.8566 8.81757C14.6963 8.98015 14.4921 9.09087 14.2699 9.13573C14.0476 9.18058 13.8172 9.15756 13.6078 9.06957C13.3984 8.98158 13.2195 8.83258 13.0936 8.6414C12.9677 8.45022 12.9005 8.22546 12.9005 7.99553C12.9012 7.68744 13.0222 7.39217 13.2369 7.17431C13.4516 6.95646 13.7426 6.83374 14.0463 6.833ZM10.8726 6.833C11.0992 6.833 11.3207 6.90118 11.5092 7.02892C11.6976 7.15666 11.8445 7.33823 11.9312 7.55065C12.0179 7.76308 12.0406 7.99682 11.9964 8.22233C11.9522 8.44784 11.843 8.65498 11.6828 8.81757C11.5225 8.98015 11.3184 9.09087 11.0961 9.13573C10.8738 9.18058 10.6434 9.15756 10.4341 9.06957C10.2247 8.98158 10.0457 8.83258 9.91981 8.6414C9.7939 8.45022 9.7267 8.22546 9.7267 7.99553C9.72742 7.68744 9.84838 7.39217 10.0631 7.17431C10.2778 6.95646 10.5689 6.83374 10.8726 6.833ZM7.69878 6.833C7.92541 6.833 8.14695 6.90118 8.33538 7.02892C8.52382 7.15666 8.67069 7.33823 8.75741 7.55065C8.84414 7.76308 8.86683 7.99682 8.82262 8.22233C8.77841 8.44784 8.66927 8.65498 8.50902 8.81757C8.34877 8.98015 8.1446 9.09087 7.92232 9.13573C7.70005 9.18058 7.46966 9.15756 7.26028 9.06957C7.0509 8.98158 6.87194 8.83258 6.74604 8.6414C6.62013 8.45022 6.55292 8.22546 6.55292 7.99553C6.55365 7.68695 6.67499 7.39127 6.89031 7.17333C7.10564 6.95539 7.39737 6.833 7.70153 6.833H7.69878Z" fill="white"/>
</svg>
