<svg width="13" height="15" viewBox="0 0 13 15" fill="none" xmlns="http://www.w3.org/2000/svg">
<path d="M13 2.88475V6.29337C13 9.40862 11.2945 12.3178 8.55852 13.8719L6.50122 15L4.45103 13.8754C1.96024 12.4575 0.315117 9.922 0.045075 7.10361C-0.0153292 6.46799 0.00243715 5.87078 0.00243715 2.88126L6.50122 0L13 2.88126V2.88475ZM5.74439 8.61932C4.33377 6.98137 3.94648 6.53085 3.90384 6.48894C3.47746 6.06985 2.81656 6.56927 3.03331 7.04075C3.08305 7.16997 2.92316 6.96391 5.27537 9.6915C5.46369 9.91152 5.80124 9.93946 6.02509 9.75436L11.2056 5.47963C11.7457 5.0326 11.06 4.23283 10.5199 4.67637L5.74439 8.61583V8.61932Z" fill="white"/>
</svg>
