<svg width="75" height="80" viewBox="0 0 75 80" fill="none" xmlns="http://www.w3.org/2000/svg">
<circle cx="1.5" cy="1.5" r="1.5" fill="#E8E8E8"/>
<circle cx="33.5" cy="1.5" r="1.5" fill="#E8E8E8"/>
<circle cx="17.5" cy="1.5" r="1.5" fill="#E8E8E8"/>
<circle cx="49.5" cy="1.5" r="1.5" fill="#E8E8E8"/>
<circle cx="65.5" cy="1.5" r="1.5" fill="#E8E8E8"/>
<circle cx="9.5" cy="1.5" r="1.5" fill="#E8E8E8"/>
<circle cx="41.5" cy="1.5" r="1.5" fill="#E8E8E8"/>
<circle cx="25.5" cy="1.5" r="1.5" fill="#E8E8E8"/>
<circle cx="57.5" cy="1.5" r="1.5" fill="#E8E8E8"/>
<circle cx="73.5" cy="1.5" r="1.5" fill="#E8E8E8"/>
<circle cx="1.5" cy="34.5" r="1.5" fill="#E8E8E8"/>
<circle cx="33.5" cy="34.5" r="1.5" fill="#E8E8E8"/>
<circle cx="17.5" cy="34.5" r="1.5" fill="#E8E8E8"/>
<circle cx="49.5" cy="34.5" r="1.5" fill="#E8E8E8"/>
<circle cx="65.5" cy="34.5" r="1.5" fill="#E8E8E8"/>
<circle cx="9.5" cy="34.5" r="1.5" fill="#E8E8E8"/>
<circle cx="41.5" cy="34.5" r="1.5" fill="#E8E8E8"/>
<circle cx="25.5" cy="34.5" r="1.5" fill="#E8E8E8"/>
<circle cx="57.5" cy="34.5" r="1.5" fill="#E8E8E8"/>
<circle cx="73.5" cy="34.5" r="1.5" fill="#E8E8E8"/>
<circle cx="1.5" cy="12.5" r="1.5" fill="#E8E8E8"/>
<circle cx="33.5" cy="12.5" r="1.5" fill="#E8E8E8"/>
<circle cx="17.5" cy="12.5" r="1.5" fill="#E8E8E8"/>
<circle cx="49.5" cy="12.5" r="1.5" fill="#E8E8E8"/>
<circle cx="65.5" cy="12.5" r="1.5" fill="#E8E8E8"/>
<circle cx="9.5" cy="12.5" r="1.5" fill="#E8E8E8"/>
<circle cx="41.5" cy="12.5" r="1.5" fill="#E8E8E8"/>
<circle cx="25.5" cy="12.5" r="1.5" fill="#E8E8E8"/>
<circle cx="57.5" cy="12.5" r="1.5" fill="#E8E8E8"/>
<circle cx="73.5" cy="12.5" r="1.5" fill="#E8E8E8"/>
<circle cx="1.5" cy="45.5" r="1.5" fill="#E8E8E8"/>
<circle cx="1.5" cy="67.5" r="1.5" fill="#E8E8E8"/>
<circle cx="33.5" cy="45.5" r="1.5" fill="#E8E8E8"/>
<circle cx="33.5" cy="67.5" r="1.5" fill="#E8E8E8"/>
<circle cx="17.5" cy="45.5" r="1.5" fill="#E8E8E8"/>
<circle cx="17.5" cy="67.5" r="1.5" fill="#E8E8E8"/>
<circle cx="49.5" cy="45.5" r="1.5" fill="#E8E8E8"/>
<circle cx="65.5" cy="45.5" r="1.5" fill="#E8E8E8"/>
<circle cx="49.5" cy="67.5" r="1.5" fill="#E8E8E8"/>
<circle cx="65.5" cy="67.5" r="1.5" fill="#E8E8E8"/>
<circle cx="9.5" cy="45.5" r="1.5" fill="#E8E8E8"/>
<circle cx="9.5" cy="67.5" r="1.5" fill="#E8E8E8"/>
<circle cx="41.5" cy="45.5" r="1.5" fill="#E8E8E8"/>
<circle cx="41.5" cy="67.5" r="1.5" fill="#E8E8E8"/>
<circle cx="25.5" cy="45.5" r="1.5" fill="#E8E8E8"/>
<circle cx="25.5" cy="67.5" r="1.5" fill="#E8E8E8"/>
<circle cx="57.5" cy="45.5" r="1.5" fill="#E8E8E8"/>
<circle cx="73.5" cy="45.5" r="1.5" fill="#E8E8E8"/>
<circle cx="57.5" cy="67.5" r="1.5" fill="#E8E8E8"/>
<circle cx="73.5" cy="67.5" r="1.5" fill="#E8E8E8"/>
<circle cx="1.5" cy="23.5" r="1.5" fill="#E8E8E8"/>
<circle cx="33.5" cy="23.5" r="1.5" fill="#E8E8E8"/>
<circle cx="17.5" cy="23.5" r="1.5" fill="#E8E8E8"/>
<circle cx="49.5" cy="23.5" r="1.5" fill="#E8E8E8"/>
<circle cx="65.5" cy="23.5" r="1.5" fill="#E8E8E8"/>
<circle cx="9.5" cy="23.5" r="1.5" fill="#E8E8E8"/>
<circle cx="41.5" cy="23.5" r="1.5" fill="#E8E8E8"/>
<circle cx="25.5" cy="23.5" r="1.5" fill="#E8E8E8"/>
<circle cx="57.5" cy="23.5" r="1.5" fill="#E8E8E8"/>
<circle cx="73.5" cy="23.5" r="1.5" fill="#E8E8E8"/>
<circle cx="1.5" cy="56.5" r="1.5" fill="#E8E8E8"/>
<circle cx="1.5" cy="78.5" r="1.5" fill="#E8E8E8"/>
<circle cx="33.5" cy="56.5" r="1.5" fill="#E8E8E8"/>
<circle cx="33.5" cy="78.5" r="1.5" fill="#E8E8E8"/>
<circle cx="17.5" cy="56.5" r="1.5" fill="#E8E8E8"/>
<circle cx="17.5" cy="78.5" r="1.5" fill="#E8E8E8"/>
<circle cx="49.5" cy="56.5" r="1.5" fill="#E8E8E8"/>
<circle cx="65.5" cy="56.5" r="1.5" fill="#E8E8E8"/>
<circle cx="49.5" cy="78.5" r="1.5" fill="#E8E8E8"/>
<circle cx="65.5" cy="78.5" r="1.5" fill="#E8E8E8"/>
<circle cx="9.5" cy="56.5" r="1.5" fill="#E8E8E8"/>
<circle cx="9.5" cy="78.5" r="1.5" fill="#E8E8E8"/>
<circle cx="41.5" cy="56.5" r="1.5" fill="#E8E8E8"/>
<circle cx="41.5" cy="78.5" r="1.5" fill="#E8E8E8"/>
<circle cx="25.5" cy="56.5" r="1.5" fill="#E8E8E8"/>
<circle cx="25.5" cy="78.5" r="1.5" fill="#E8E8E8"/>
<circle cx="57.5" cy="56.5" r="1.5" fill="#E8E8E8"/>
<circle cx="73.5" cy="56.5" r="1.5" fill="#E8E8E8"/>
<circle cx="57.5" cy="78.5" r="1.5" fill="#E8E8E8"/>
<circle cx="73.5" cy="78.5" r="1.5" fill="#E8E8E8"/>
</svg>
